<svg width="17" height="18" viewBox="0 0 17 18" fill="none" xmlns="http://www.w3.org/2000/svg">
<path d="M8.5 4.77954C6.125 4.77954 4.23242 6.70923 4.23242 9.04712C4.23242 11.4221 6.125 13.3147 8.5 13.3147C10.8379 13.3147 12.7676 11.4221 12.7676 9.04712C12.7676 6.70923 10.8379 4.77954 8.5 4.77954ZM8.5 11.8303C6.97852 11.8303 5.7168 10.6057 5.7168 9.04712C5.7168 7.52563 6.94141 6.30103 8.5 6.30103C10.0215 6.30103 11.2461 7.52563 11.2461 9.04712C11.2461 10.6057 10.0215 11.8303 8.5 11.8303ZM13.918 4.6311C13.918 4.07446 13.4727 3.62915 12.916 3.62915C12.3594 3.62915 11.9141 4.07446 11.9141 4.6311C11.9141 5.18774 12.3594 5.63306 12.916 5.63306C13.4727 5.63306 13.918 5.18774 13.918 4.6311ZM16.7383 5.63306C16.6641 4.29712 16.3672 3.10962 15.4023 2.14478C14.4375 1.17993 13.25 0.883057 11.9141 0.808838C10.541 0.734619 6.42188 0.734619 5.04883 0.808838C3.71289 0.883057 2.5625 1.17993 1.56055 2.14478C0.595703 3.10962 0.298828 4.29712 0.224609 5.63306C0.150391 7.0061 0.150391 11.1252 0.224609 12.4983C0.298828 13.8342 0.595703 14.9846 1.56055 15.9866C2.5625 16.9514 3.71289 17.2483 5.04883 17.3225C6.42188 17.3967 10.541 17.3967 11.9141 17.3225C13.25 17.2483 14.4375 16.9514 15.4023 15.9866C16.3672 14.9846 16.6641 13.8342 16.7383 12.4983C16.8125 11.1252 16.8125 7.0061 16.7383 5.63306ZM14.957 13.9456C14.6973 14.6877 14.1035 15.2444 13.3984 15.5413C12.2852 15.9866 9.6875 15.8752 8.5 15.8752C7.27539 15.8752 4.67773 15.9866 3.60156 15.5413C2.85938 15.2444 2.30273 14.6877 2.00586 13.9456C1.56055 12.8694 1.67188 10.2717 1.67188 9.04712C1.67188 7.85962 1.56055 5.26196 2.00586 4.14868C2.30273 3.4436 2.85938 2.88696 3.60156 2.59009C4.67773 2.14478 7.27539 2.2561 8.5 2.2561C9.6875 2.2561 12.2852 2.14478 13.3984 2.59009C14.1035 2.84985 14.6602 3.4436 14.957 4.14868C15.4023 5.26196 15.291 7.85962 15.291 9.04712C15.291 10.2717 15.4023 12.8694 14.957 13.9456Z" fill="#292F36"/>
</svg>
