<svg width="16" height="17" viewBox="0 0 16 17" fill="none" xmlns="http://www.w3.org/2000/svg">
<path d="M3.64062 16.1721V5.6604H0.371094V16.1721H3.64062ZM1.98828 4.25415C3.04297 4.25415 3.88672 3.37524 3.88672 2.32056C3.88672 1.30103 3.04297 0.457275 1.98828 0.457275C0.96875 0.457275 0.125 1.30103 0.125 2.32056C0.125 3.37524 0.96875 4.25415 1.98828 4.25415ZM15.8398 16.1721H15.875V10.4065C15.875 7.59399 15.2422 5.41431 11.9375 5.41431C10.3555 5.41431 9.30078 6.29321 8.84375 7.10181H8.80859V5.6604H5.67969V16.1721H8.94922V10.969C8.94922 9.5979 9.19531 8.29712 10.8828 8.29712C12.5703 8.29712 12.6055 9.84399 12.6055 11.0745V16.1721H15.8398Z" fill="#292F36"/>
</svg>
